/* XPM */
static char *ac1ebbe7ba384ea7acf0255464c4a0f3byjTKDiyhUKzwG7i[] = {
/* columns rows colors chars-per-pixel */
"64 64 6 1 ",
"  c black",
". c #FFFFFF",
"= c #9000FF",
"- c #BA00CF",
"& c #E46734",
"< c #00D0C9",
/* pixels */
"                                                                ",
"                                                                ",
"                                                                ",
"                                                                ",
"                                                                ",
"                                                                ",
"                         <<<<<<<<<<<<<<                         ",
"                      <<<<<<<<<<<<<<<<<<                        ",
"                     <<....<<<<<<<<....<<                       ",
"                   <<<.......<<<<<.......<                      ",
"                    <.........<<..........<                     ",
"                   << ....................                      ",
"                    <  ..................                       ",
"                     <  ................ <                      ",
"                        ................                        ",
"                        ................                        ",
"                        ................                        ",
"                        ................                        ",
"                       ..................                       ",
"                    .......<<<<.............                    ",
"                   ........<<<<<.............                   ",
"                  .........<<<<<..............                  ",
"                 ..........<<<<<...............                 ",
"                ............<<<.................                ",
"               ..................................               ",
"              ....................................              ",
"             .......................&&&&&..........             ",
"             ......................&&&&&&&.........             ",
"            .......................&&&&&&&..........            ",
"            .......................&&&&&&&-.........            ",
"           ........................-&&&&&&-.........            ",
"           .......----.............--&& --...........           ",
"           .....--------............-----............           ",
"           ....----&----..............--.............           ",
"           ....--&&&&&&--............................           ",
"           ....--&&&&&&&-............................           ",
"           ....--&&&&&&&-......&&&...................           ",
"           ....--&&&&&&&&...&&&&&&&&...........&&....           ",
"           ....---&&&&&&&..&&&&---&&&&.......&&&&....           ",
"           ....----&&&&&&&&&--------&&&&&&&&&&&--....           ",
"           ....------&&&&&&-----------&&&&&&&----....           ",
"           ....----------------------------------....           ",
"            ....=-------------------------------....            ",
"            .....=-------------===..-----------.....            ",
"             ....===--------====.....--------==....             ",
"             .....===------=====.....=------==.....             ",
"              .....=============.....========.....              ",
"              ......============.....=======.....               ",
"               ......=============.========......               ",
"                ......====================......                ",
"                  ........============........                  ",
"                   ...........====...........                   ",
"                     ......................                     ",
"                       ..................                       ",
"                         ..............                         ",
"                              ....                              ",
"                                                                ",
"                                                                ",
"                                                                ",
"                                                                ",
"                                                                ",
"                                                                ",
"                                                                ",
"                                                                "
};
