/* XPM */
static char *_5ec750a3e9e4ecc8f644079fc33d4beqFSFOxeHGyVful8R[] = {
/* columns rows colors chars-per-pixel */
"64 64 8 1 ",
"  c black",
". c white",
"< c #E46734",
"= c #BA00CF",
"> c #9000FF",
": c #4868E4",
", c #00D0C9",
"? c #F5F5F5",
/* pixels */
"................................................................",
"................................................................",
"..                                                            ..",
"..                 ??????????????===  >>>                     ..",
"..                ????????????======  >>>>>                   ..",
"..               ????????????=======  >>>>>>                  ..",
"..              ?????????????=======  >>>>>>                  ..",
"..             ????????????  =======  >>>>>>                  ..",
"..            ????????????<  =======  >>>>>>   :              ..",
"..           ????????????<<  =======  >>>>>>   ::             ..",
"..          ????????????<<<  =======  >>>>>>   ::             ..",
"..          ????????????<<<  =======  >>>>>>   :::            ..",
"..         ????????????<<<<  =======  >>>>>>   :::            ..",
"..         ????????????<<<<  =======  >>>>>>   ::::           ..",
"..        ????????????<<<<<  =======  >>>>>>   ::::           ..",
"..        ????????????<<<<<  =======  >>>>>>   :::::          ..",
"..        ????????????<<<<<  =======  >>>>>>   :::::          ..",
"..       ????????????<<<<<<  =======  >>>>>>   :::::          ..",
"..       ????????????<<<<<<  =======  >>>>>>   :::::  ,,      ..",
"..       ????????????<<<<<<  =======  >>>>>>   :::::  ,,      ..",
"..       ????????????                                         ..",
"..       ????????????                                         ..",
"..       ????????????                                         ..",
"..       ????????????   ................................      ..",
"..       ????????????   ................................      ..",
"..       ????????????   ................................      ..",
"..       ????????????   ................................      ..",
"..       ????????????                                         ..",
"..       ????????????                                         ..",
"..       ????????????<<<<<<  =======  >>>>>>   :::::  ,,      ..",
"..       ????????????<<<<<<  =======  >>>>>>   :::::  ,,      ..",
"..       ????????????<<<<<<  =======  >>>>>>   :::::          ..",
"..       ????????????<<<<    =======  >>>>>>   :::::          ..",
"..       ????????????<<       ======  >>>>>>   :::::          ..",
"..       ????????????<        ======  >>>>>>   :::::          ..",
"..       ????????????<   ,,    =====  >>>>>>   :::::          ..",
"..       ????????????<   ,,,   =====  >>>>>>   :::::          ..",
"..       ????????????<   ,,,   =====  >>>>>>   :::::          ..",
"..       ????????????<   ,,,   =====  >>>>>>   :::::          ..",
"..       ????????????<    ,    =====  >>>>>>   :::::          ..",
"..       ????????????<<       ======  >>>>>>   :::::          ..",
"..       ????????????<<<     =======  >>>>>>   :::::          ..",
"..       ????????????<<<<<<  =======  >>>>>>   :::::          ..",
"..       ????????????<<<<<<  =======  >>>>>>   :::::  ,,      ..",
"..       ????????????<<<<<<  =======  >>>>>>   :::::  ,,      ..",
"..       ????????????                                         ..",
"..       ????????????                                         ..",
"..       ????????????                                         ..",
"..       ????????????   ................................      ..",
"..       ????????????   ................................      ..",
"..       ????????????   ................................      ..",
"..       ????????????   ................................      ..",
"..       ????????????                                         ..",
"..       ????????????                                         ..",
"..       ????????????<<<<<<  =======  >>>>>>   :::::  ,,      ..",
"..       ????????????<<<<<<  =======  >>>>>>   :::::  ,,      ..",
"..       ????????????<<<<<<  =======  >>>>>>   :::::          ..",
"..       ????????????<<<<<<  =======  >>>>>>   :::::          ..",
"..       ????????????<<<<<<  =======  >>>>>>   :::::          ..",
"..       ????????????<<<<<<  =======  >>>>>>   :::::          ..",
"..       ????????????<<<<<<  =======  >>>>>>   :::::          ..",
"..       ????????????<<<<<<  =======  >>>>>>   :::::          ..",
"................................................................",
"................................................................"
};
