/* XPM */
static char *c33611fec4a84057de69d85dd4c36012Fvfp1ubEZta2NngN[] = {
/* columns rows colors chars-per-pixel */
"64 64 9 1 ",
"  c white",
". c black",
"< c #00D0C9",
"m c #4868E4",
"= c #9000FF",
"n c #A500E7",
"- c #BA00CF",
": c #CF3482",
"& c #E46734",
/* pixels */
"                                                                ",
"                                                                ",
"  .............<<..............................n-.............  ",
"  .............<<..............................n-.............  ",
"  .............<m..............................--.............  ",
"  .............<<..............................--.............  ",
"  .............<<..............................--.............  ",
"  .............<m..............................--.............  ",
"  .............mm..............................n-.............  ",
"  .............<m..............................nn.............  ",
"  .............<m..............................nn.............  ",
"  .............<<..............................nn.............  ",
"  .............<m..............................nn.............  ",
"  .............mm..............................nn.............  ",
"  .............mm..............................n-.............  ",
"  mmmmmmmmmmmmmmmm=mm================nnnnnn---nn--------------  ",
"  mmmmmmmmm<=mmmm==m=mm===========nn--------nn-:::::::::::---   ",
"  .............................==.............................  ",
"  .............................nn.............................  ",
"  .............................n-.............................  ",
"  .............................--.............................  ",
"  .............................n-.............................  ",
"  .............................--.............................  ",
"  .............................--.............................  ",
"  .............................--.............................  ",
"  .............................-:.............................  ",
"  .............................-:.............................  ",
"  .............................::.............................  ",
"  .............................::.............................  ",
"  .............................::.............................  ",
"  .............................::.............................  ",
"  <m<<<mm==m======nnn-------::::::::::::&&&&&&&&&&&&&&&&&&&::   ",
"  <<<mm===mm====nnnnn----------:::::::::::::&&&&&&&&&&&&&:::::  ",
"  .............==..............................&&.............  ",
"  .............==..............................&&.............  ",
"  .............=m..............................&&.............  ",
"  .............=m..............................&&.............  ",
"  .............==..............................&&.............  ",
"  .............==..............................&&.............  ",
"  .............=m..............................&&.............  ",
"  .............=n..............................&&.............  ",
"  .............mn..............................&&.............  ",
"  .............nm..............................&&.............  ",
"  .............=n..............................&&.............  ",
"  .............=n..............................&&.............  ",
"  .............nn..............................&&.............  ",
"  .............nn..............................&&.............  ",
"  <<<mm===m=nnn------::::::::::::-nn::::::&&&&&&&&::::::-n--    ",
"  mmmm====nn------::::::::::::--=====nnn::::&&&&&:::::nn=====n  ",
"  .............................=m.............................  ",
"  .............................n=.............................  ",
"  .............................nn.............................  ",
"  .............................-n.............................  ",
"  .............................:-.............................  ",
"  .............................::.............................  ",
"  .............................::.............................  ",
"  .............................::.............................  ",
"  .............................::.............................  ",
"  .............................::.............................  ",
"  .............................::.............................  ",
"  .............................::.............................  ",
"  .............................::.............................  ",
"                                                                ",
"                                                                "
};
